# xmcd CD database file
#
# Track frame offsets:
#	150
#	15060
#	35302
#	48017
#	58065
#	70765
#	81160
#	96365
#	109727
#	131685
#	152522
#	169890
#	190317
#	201932
#	214717
#	229252
#
# Disc length: 3210 seconds
#
# Revision: 0
# Processed by: cddbd v1.4PL0 Copyright (c) Steve Scherf et al.
# Submitted via: CDex 1.40Beta9
#
DISCID=d00c8810
DTITLE=William Horncloud - Traditional Lakota Songs
DYEAR=1900
DGENRE=Native American
TTITLE0=Honoring Song
TTITLE1=Omaha Dance Song
TTITLE2=War Song
TTITLE3=War Song
TTITLE4=Omaha Dance Song
TTITLE5=War Song
TTITLE6=Marching Song
TTITLE7=War Song
TTITLE8=Love Song
TTITLE9=Love Song #2
TTITLE10=Love Song #3
TTITLE11=Round Dance Song
TTITLE12=Sioux National Anthem and Victory Song
TTITLE13=Chief's Honoring Song
TTITLE14=Oldest Rabbit Song
TTITLE15=Rabbit Song
EXTD=ID3G: 64
EXTT0=
EXTT1=
EXTT2=
EXTT3=
EXTT4=
EXTT5=
EXTT6=
EXTT7=
EXTT8=
EXTT9=
EXTT10=
EXTT11=
EXTT12=
EXTT13=
EXTT14=
EXTT15=
PLAYORDER=
